<svg version="1.1" id="Layer_1" xmlns="http://www.w3.org/2000/svg" xmlns:xlink="http://www.w3.org/1999/xlink" x="0px" y="0px"
	 width="100%" viewBox="0 0 1342 302" enable-background="new 0 0 1342 302" xml:space="preserve">
<path fill="#38562C" opacity="1.000000" stroke="none" 
	d="
M978.000000,303.000000 
	C652.000061,303.000000 326.500092,303.000000 1.000087,303.000000 
	C1.000058,202.333389 1.000058,101.666771 1.000029,1.000114 
	C448.333221,1.000076 895.666443,1.000076 1342.999756,1.000038 
	C1342.999756,101.666557 1342.999756,202.333115 1342.999878,302.999817 
	C1221.500000,303.000000 1100.000000,303.000000 978.000000,303.000000 
M46.819672,183.499908 
	C46.820232,195.329987 46.800884,207.160095 46.825890,218.990112 
	C46.866463,238.183426 58.415558,249.747375 77.650223,249.775009 
	C111.640564,249.823853 145.630981,249.820908 179.621368,249.833298 
	C186.573944,249.835831 193.576553,250.288101 200.454987,249.567627 
	C203.290359,249.270630 207.062103,246.996307 208.209122,244.578278 
	C209.348602,242.176208 208.071686,238.360031 207.172836,235.368805 
	C206.704376,233.809845 204.791595,232.667862 203.490265,231.378860 
	C192.259460,220.254517 181.019318,209.139618 169.900375,198.139053 
	C184.616669,174.597336 178.503662,147.301376 159.361893,132.576157 
	C141.317368,118.695015 115.233032,119.674553 98.209450,135.165283 
	C81.187515,150.654495 77.418739,176.677780 89.431511,195.776535 
	C103.790077,218.604782 126.240082,223.593323 155.947052,211.473557 
	C163.323227,218.662155 170.258270,225.420837 177.149948,232.137268 
	C176.652710,232.205002 175.712814,232.444489 174.772781,232.444977 
	C141.948685,232.462112 109.124420,232.513412 76.300598,232.415192 
	C67.968491,232.390259 64.020576,228.045273 64.012192,219.482819 
	C63.989014,195.822800 64.104073,172.161987 63.923088,148.503311 
	C63.884567,143.468704 65.381035,139.628357 68.897911,136.036346 
	C86.848648,117.702087 104.628143,99.200256 122.488106,80.776978 
	C128.099579,74.988525 130.286255,75.039566 135.944427,80.889412 
	C155.868622,101.488495 175.778442,122.101517 195.735229,142.668976 
	C200.064896,147.131134 205.234512,147.520844 208.924820,143.892792 
	C212.681305,140.199692 212.422180,135.197388 208.039337,130.656509 
	C187.558350,109.437073 167.086700,88.208160 146.510132,67.081581 
	C136.084335,56.377094 122.120621,56.421341 111.647774,67.174301 
	C92.698875,86.630043 73.865120,106.197968 54.991638,125.727112 
	C49.530807,131.377640 46.755962,138.088257 46.806126,146.010254 
	C46.883141,158.173004 46.822121,170.336639 46.819672,183.499908 
M773.608765,174.955322 
	C769.145386,171.175613 764.681946,167.395889 760.113037,163.526779 
	C760.934631,162.991425 762.309326,162.137619 763.640625,161.220810 
	C769.245667,157.360703 773.803894,152.641235 776.047302,146.028946 
	C782.515259,126.965141 774.961182,107.373756 756.829590,98.853203 
	C750.061707,95.672768 742.258667,93.609215 734.806885,93.191505 
	C718.362061,92.269691 701.839539,92.782730 685.350952,92.552475 
	C681.867798,92.503822 680.786133,93.719627 680.793457,97.189583 
	C680.887695,141.838486 680.891418,186.487732 680.789246,231.136597 
	C680.780823,234.837418 681.926514,236.050995 685.645020,236.006943 
	C700.637024,235.829315 715.648621,236.330978 730.619446,235.736740 
	C738.181396,235.436600 745.933655,234.163025 753.146912,231.891357 
	C778.046448,224.049683 787.731995,197.319229 773.608765,174.955322 
M832.132507,178.767059 
	C838.111328,176.131271 841.556396,176.979980 844.625061,181.872818 
	C852.322937,194.146454 859.984314,206.443039 867.717834,218.694183 
	C871.267639,224.317596 873.766479,232.045975 878.903625,234.827835 
	C884.233276,237.713867 892.176331,235.797852 898.977417,235.932159 
	C902.195068,235.995712 905.415100,235.943069 910.238403,235.943069 
	C896.873474,214.545410 884.445374,194.647507 871.965393,174.666641 
	C874.730286,173.399948 876.837219,172.412918 878.961548,171.464935 
	C894.079956,164.718430 901.483948,152.923248 901.972534,136.519730 
	C902.471619,119.763618 895.880432,106.806709 880.600281,99.567741 
	C873.667480,96.283325 865.836365,93.693977 858.259766,93.216438 
	C841.825439,92.180595 825.291931,92.759003 808.800598,92.549141 
	C805.613159,92.508583 804.614014,93.601372 804.338867,96.840195 
	C803.205322,110.182205 804.793884,122.648224 814.177734,133.102158 
	C815.275452,134.325119 816.007080,135.878510 816.896790,137.286102 
	C819.603943,141.569366 822.305420,145.856277 825.516785,150.946457 
	C819.101746,150.946457 813.809448,151.078171 808.528015,150.895782 
	C805.487183,150.790771 804.399353,151.938156 804.406372,154.929794 
	C804.466797,180.589951 804.465881,206.250336 804.410522,231.910507 
	C804.404053,234.909134 805.555237,236.058472 808.566589,235.981552 
	C814.394592,235.832687 820.243652,235.690247 826.056458,236.023651 
	C830.549316,236.281342 832.139893,234.974228 832.062805,230.206848 
	C831.790894,213.382492 831.980042,196.550690 832.132507,178.767059 
M1020.290710,209.206131 
	C999.358215,209.206131 978.425659,209.206131 957.364380,209.206131 
	C957.364380,198.122055 957.364380,187.733536 957.364380,176.940979 
	C959.515503,176.940979 961.320007,176.941025 963.124512,176.940979 
	C978.789124,176.940475 994.455444,176.813797 1010.117188,177.026154 
	C1014.146484,177.080795 1015.386230,175.769424 1015.179504,171.866516 
	C1014.897827,166.548813 1014.857422,161.189178 1015.190491,155.877441 
	C1015.447876,151.773071 1013.857422,150.824265 1010.021729,150.868591 
	C994.192627,151.051605 978.360107,150.952057 962.528870,150.933655 
	C960.773193,150.931610 959.017578,150.784454 957.286011,150.705688 
	C957.286011,139.821030 957.286011,129.543671 957.286011,118.477310 
	C979.918579,118.477310 1002.293579,118.477310 1024.886108,118.477310 
	C1024.886108,109.576332 1024.886108,101.469261 1024.886108,92.976669 
	C993.218872,92.976669 961.814758,92.976669 930.203918,92.976669 
	C930.011902,94.293961 929.705750,95.416862 929.705139,96.539917 
	C929.680481,141.533966 929.701416,186.528046 929.643860,231.522049 
	C929.639893,234.627014 930.518921,236.001816 933.901428,235.990997 
	C963.563904,235.896011 993.226868,235.897263 1022.889343,235.988876 
	C1026.275757,235.999329 1027.192993,234.636475 1027.094727,231.507736 
	C1026.922363,226.013901 1026.747192,220.489044 1027.140869,215.018036 
	C1027.478149,210.330795 1025.791260,208.522537 1020.290710,209.206131 
M1260.905762,119.404892 
	C1267.742188,110.970169 1274.578491,102.535446 1282.245972,93.075287 
	C1278.915039,92.842857 1277.154419,92.623901 1275.392700,92.613922 
	C1268.229614,92.573326 1261.059448,92.782059 1253.905518,92.522346 
	C1250.044434,92.382179 1247.487915,93.633034 1245.037720,96.686455 
	C1229.401489,116.172264 1213.567261,135.499451 1197.782593,154.866089 
	C1196.902710,155.945587 1195.883179,156.911179 1194.117188,158.795578 
	C1194.117188,156.165756 1194.117188,154.727631 1194.117188,153.289505 
	C1194.117065,134.964676 1193.943481,116.637093 1194.234253,98.316887 
	C1194.310303,93.524162 1192.694946,92.264328 1188.258545,92.524025 
	C1182.945923,92.835022 1177.582275,92.875496 1172.276001,92.514610 
	C1167.727661,92.205269 1166.729736,93.975662 1166.752075,98.255081 
	C1166.919189,130.072784 1166.842163,161.891739 1166.842041,193.710312 
	C1166.842041,206.037918 1167.000122,218.368637 1166.756836,230.691437 
	C1166.673584,234.912170 1168.103760,236.224762 1172.198730,236.011993 
	C1177.847534,235.718491 1183.536987,235.694855 1189.182495,236.019104 
	C1193.308716,236.256119 1194.293579,234.603394 1194.186401,230.803574 
	C1193.956665,222.647202 1194.913574,214.381195 1193.918823,206.341492 
	C1192.625732,195.891357 1199.132690,190.364609 1205.379761,183.992386 
	C1206.631592,185.482697 1207.713745,186.731354 1208.753052,188.014755 
	C1220.808350,202.900162 1232.813599,217.826645 1244.974609,232.625153 
	C1246.201904,234.118729 1248.332031,235.727661 1250.091309,235.784027 
	C1259.576782,236.087891 1269.077759,235.943192 1278.572632,235.870346 
	C1279.438110,235.863708 1280.299072,235.270508 1282.111450,234.596817 
	C1262.370972,211.321289 1243.043091,188.532211 1223.458374,165.440369 
	C1235.900024,150.141724 1248.176025,135.046768 1260.905762,119.404892 
M426.323303,223.482697 
	C426.323303,208.373718 426.323303,193.264740 426.323303,177.556320 
	C432.855103,177.556320 438.655609,177.557571 444.456116,177.556046 
	C454.231689,177.553452 463.706482,175.949371 472.629883,171.853134 
	C487.854095,164.864609 495.823364,153.162674 496.162415,136.168839 
	C496.511871,118.654907 489.325500,105.706261 473.259827,98.713585 
	C466.370697,95.715050 458.670532,93.516701 451.217834,93.095299 
	C435.270020,92.193573 419.242798,92.737984 403.249512,92.563408 
	C400.027710,92.528244 399.157288,93.697296 398.882507,96.912308 
	C397.741974,110.258629 399.574585,122.555557 408.660797,133.214081 
	C412.083252,137.228760 414.467377,142.132355 417.288635,146.653305 
	C418.033417,147.846832 418.643494,149.124435 419.632874,150.948776 
	C413.711456,150.948776 408.559174,151.136337 403.428436,150.884796 
	C399.828522,150.708298 398.913300,152.136307 398.928253,155.534805 
	C399.038971,180.695908 399.046173,205.858032 398.921936,231.019012 
	C398.904236,234.606293 399.794189,236.277039 403.661835,235.994583 
	C407.308258,235.728302 410.989532,235.939316 414.655457,235.939392 
	C426.322998,235.939667 426.322998,235.939499 426.323303,223.482697 
M316.268707,109.743179 
	C300.148987,151.381866 284.029266,193.020569 267.412903,235.942184 
	C273.280731,235.942184 278.013794,235.992813 282.745239,235.927521 
	C287.222046,235.865753 292.743103,237.230545 295.876648,235.113647 
	C298.962738,233.028824 299.812683,227.426193 301.288788,223.241837 
	C302.214478,220.617615 303.580872,219.672333 306.368469,219.717834 
	C315.857971,219.872681 325.351898,219.735458 334.843628,219.790833 
	C339.489044,219.817947 345.099762,218.479324 348.494415,220.602890 
	C351.611664,222.552963 352.522186,228.254257 354.058746,232.430252 
	C355.113983,235.298157 356.857452,236.071976 359.729614,235.995163 
	C366.219543,235.821625 372.717743,235.982330 379.211517,235.910294 
	C380.746277,235.893250 382.276794,235.493881 384.221466,235.210297 
	C383.407196,232.980148 382.868469,231.425583 382.275330,229.892075 
	C374.176697,208.952866 366.077209,188.013977 357.964447,167.080246 
	C348.349365,142.270020 338.745239,117.455421 329.039581,92.680626 
	C328.450470,91.176918 327.010223,90.006645 325.966034,88.681229 
	C324.943542,90.039711 323.594971,91.261414 322.957428,92.781364 
	C320.707031,98.146767 318.700226,103.614342 316.268707,109.743179 
M1082.157593,114.650742 
	C1066.657593,154.703232 1051.157471,194.755737 1035.218506,235.942291 
	C1041.292603,235.942291 1046.060303,235.942307 1050.828003,235.942307 
	C1064.274780,235.942276 1064.330444,235.963135 1069.028564,223.446228 
	C1069.950562,220.989777 1070.982788,219.671616 1073.930664,219.707916 
	C1087.082764,219.869888 1100.239990,219.671494 1113.389526,219.915817 
	C1115.008057,219.945908 1117.778564,221.639938 1118.006958,222.920868 
	C1120.116089,234.753555 1127.379028,237.897049 1138.289795,236.022797 
	C1141.363037,235.494888 1144.604858,235.998322 1147.766113,235.910294 
	C1148.995361,235.876053 1150.215454,235.514648 1151.909180,235.220825 
	C1151.199585,233.151596 1150.723877,231.601852 1150.141968,230.093094 
	C1145.115723,217.061325 1140.075684,204.034882 1135.029541,191.010788 
	C1122.353882,158.294586 1109.689087,125.574089 1096.942261,92.885574 
	C1096.338379,91.336998 1094.986206,90.080200 1093.982544,88.687523 
	C1092.854736,90.131523 1091.343384,91.416191 1090.665771,93.047188 
	C1087.795654,99.954933 1085.173462,106.965645 1082.157593,114.650742 
M562.999756,176.500000 
	C562.999756,156.766235 562.999756,137.032455 562.999756,117.041321 
	C571.837952,117.041321 579.826111,116.908401 587.806213,117.103729 
	C591.219116,117.187256 592.654907,116.137787 592.516724,112.592575 
	C592.315796,107.436386 592.309448,102.260185 592.519104,97.104675 
	C592.664307,93.533455 591.151794,92.545029 587.790283,92.556862 
	C562.136902,92.647179 536.483032,92.643974 510.829651,92.558258 
	C507.464661,92.547020 505.755127,93.576309 506.169098,97.137299 
	C506.264648,97.958954 506.145538,98.803154 506.185333,99.634094 
	C506.453247,105.230988 506.737366,110.827103 507.016266,116.423462 
	C512.463928,116.630249 517.910217,116.895035 523.359680,117.024742 
	C527.426331,117.121536 531.497009,117.043823 535.849670,117.043823 
	C535.849670,119.959175 535.849670,121.946449 535.849670,123.933731 
	C535.849976,159.415741 535.921509,194.898087 535.759399,230.379364 
	C535.739319,234.759354 536.951843,236.318207 541.392822,236.020584 
	C546.699646,235.664948 552.063599,235.689499 557.374329,236.014771 
	C561.670532,236.277924 563.168579,235.008133 563.103149,230.471649 
	C562.848572,212.817612 562.999573,195.157715 562.999756,176.500000 
z"/>
<path fill="#EEBC40" opacity="1.000000" stroke="none" 
	d="
M46.819672,182.999908 
	C46.822121,170.336639 46.883141,158.173004 46.806126,146.010254 
	C46.755962,138.088257 49.530807,131.377640 54.991638,125.727112 
	C73.865120,106.197968 92.698875,86.630043 111.647774,67.174301 
	C122.120621,56.421341 136.084335,56.377094 146.510132,67.081581 
	C167.086700,88.208160 187.558350,109.437073 208.039337,130.656509 
	C212.422180,135.197388 212.681305,140.199692 208.924820,143.892792 
	C205.234512,147.520844 200.064896,147.131134 195.735229,142.668976 
	C175.778442,122.101517 155.868622,101.488495 135.944427,80.889412 
	C130.286255,75.039566 128.099579,74.988525 122.488106,80.776978 
	C104.628143,99.200256 86.848648,117.702087 68.897911,136.036346 
	C65.381035,139.628357 63.884567,143.468704 63.923088,148.503311 
	C64.104073,172.161987 63.989014,195.822800 64.012192,219.482819 
	C64.020576,228.045273 67.968491,232.390259 76.300598,232.415192 
	C109.124420,232.513412 141.948685,232.462112 174.772781,232.444977 
	C175.712814,232.444489 176.652710,232.205002 177.149948,232.137268 
	C170.258270,225.420837 163.323227,218.662155 155.947052,211.473557 
	C126.240082,223.593323 103.790077,218.604782 89.431511,195.776535 
	C77.418739,176.677780 81.187515,150.654495 98.209450,135.165283 
	C115.233032,119.674553 141.317368,118.695015 159.361893,132.576157 
	C178.503662,147.301376 184.616669,174.597336 169.900375,198.139053 
	C181.019318,209.139618 192.259460,220.254517 203.490265,231.378860 
	C204.791595,232.667862 206.704376,233.809845 207.172836,235.368805 
	C208.071686,238.360031 209.348602,242.176208 208.209122,244.578278 
	C207.062103,246.996307 203.290359,249.270630 200.454987,249.567627 
	C193.576553,250.288101 186.573944,249.835831 179.621368,249.833298 
	C145.630981,249.820908 111.640564,249.823853 77.650223,249.775009 
	C58.415558,249.747375 46.866463,238.183426 46.825890,218.990112 
	C46.800884,207.160095 46.820232,195.329987 46.819672,182.999908 
M158.394531,181.611145 
	C164.419937,163.734711 155.247131,145.837692 137.825027,141.478119 
	C120.227066,137.074539 103.589294,148.273743 100.415215,166.659348 
	C98.037109,180.434296 107.557472,195.348419 121.421402,199.566605 
	C136.282867,204.088318 151.223358,197.070236 158.394531,181.611145 
z"/>
<path fill="#F0BD41" opacity="1.000000" stroke="none" 
	d="
M773.807251,175.261017 
	C787.731995,197.319229 778.046448,224.049683 753.146912,231.891357 
	C745.933655,234.163025 738.181396,235.436600 730.619446,235.736740 
	C715.648621,236.330978 700.637024,235.829315 685.645020,236.006943 
	C681.926514,236.050995 680.780823,234.837418 680.789246,231.136597 
	C680.891418,186.487732 680.887695,141.838486 680.793457,97.189583 
	C680.786133,93.719627 681.867798,92.503822 685.350952,92.552475 
	C701.839539,92.782730 718.362061,92.269691 734.806885,93.191505 
	C742.258667,93.609215 750.061707,95.672768 756.829590,98.853203 
	C774.961182,107.373756 782.515259,126.965141 776.047302,146.028946 
	C773.803894,152.641235 769.245667,157.360703 763.640625,161.220810 
	C762.309326,162.137619 760.934631,162.991425 760.113037,163.526779 
	C764.681946,167.395889 769.145386,171.175613 773.807251,175.261017 
M739.679443,208.389709 
	C748.981201,205.542618 752.951050,200.890045 752.720764,193.105423 
	C752.495789,185.497131 748.093140,179.989609 738.632629,178.945511 
	C728.686157,177.847794 718.524597,178.699738 708.309204,178.699738 
	C708.309204,188.757721 708.309204,198.992844 708.309204,210.282501 
	C718.736328,209.722824 728.814636,209.181885 739.679443,208.389709 
M715.597473,150.950378 
	C723.522888,150.353622 731.577148,150.436539 739.336609,148.964890 
	C746.780945,147.553024 750.342773,142.410904 750.643433,135.641663 
	C750.965332,128.392654 747.358643,122.812202 740.275330,120.288078 
	C729.805786,116.557289 719.022644,118.392555 708.361938,118.231339 
	C708.361938,129.430176 708.361938,139.991226 708.361938,150.950333 
	C710.684753,150.950333 712.655640,150.950333 715.597473,150.950378 
z"/>
<path fill="#EFBD41" opacity="1.000000" stroke="none" 
	d="
M832.063354,179.244385 
	C831.980042,196.550690 831.790894,213.382492 832.062805,230.206848 
	C832.139893,234.974228 830.549316,236.281342 826.056458,236.023651 
	C820.243652,235.690247 814.394592,235.832687 808.566589,235.981552 
	C805.555237,236.058472 804.404053,234.909134 804.410522,231.910507 
	C804.465881,206.250336 804.466797,180.589951 804.406372,154.929794 
	C804.399353,151.938156 805.487183,150.790771 808.528015,150.895782 
	C813.809448,151.078171 819.101746,150.946457 825.516785,150.946457 
	C822.305420,145.856277 819.603943,141.569366 816.896790,137.286102 
	C816.007080,135.878510 815.275452,134.325119 814.177734,133.102158 
	C804.793884,122.648224 803.205322,110.182205 804.338867,96.840195 
	C804.614014,93.601372 805.613159,92.508583 808.800598,92.549141 
	C825.291931,92.759003 841.825439,92.180595 858.259766,93.216438 
	C865.836365,93.693977 873.667480,96.283325 880.600281,99.567741 
	C895.880432,106.806709 902.471619,119.763618 901.972534,136.519730 
	C901.483948,152.923248 894.079956,164.718430 878.961548,171.464935 
	C876.837219,172.412918 874.730286,173.399948 871.965393,174.666641 
	C884.445374,194.647507 896.873474,214.545410 910.238403,235.943069 
	C905.415100,235.943069 902.195068,235.995712 898.977417,235.932159 
	C892.176331,235.797852 884.233276,237.713867 878.903625,234.827835 
	C873.766479,232.045975 871.267639,224.317596 867.717834,218.694183 
	C859.984314,206.443039 852.322937,194.146454 844.625061,181.872818 
	C841.556396,176.979980 838.111328,176.131271 832.063354,179.244385 
M872.159180,143.450699 
	C878.062378,131.876663 873.196960,121.537933 860.361328,119.967010 
	C852.723206,119.032196 844.877197,119.795738 836.708008,119.795738 
	C837.485413,121.196609 838.199646,122.629982 839.044617,123.981567 
	C843.281738,130.759277 847.556824,137.513199 851.811340,144.280014 
	C856.218201,151.289047 859.242615,152.118088 866.635132,148.016327 
	C868.492981,146.985489 870.040771,145.395813 872.159180,143.450699 
z"/>
<path fill="#F0BD41" opacity="1.000000" stroke="none" 
	d="
M1020.764404,209.206451 
	C1025.791260,208.522537 1027.478149,210.330795 1027.140869,215.018036 
	C1026.747192,220.489044 1026.922363,226.013901 1027.094727,231.507736 
	C1027.192993,234.636475 1026.275757,235.999329 1022.889343,235.988876 
	C993.226868,235.897263 963.563904,235.896011 933.901428,235.990997 
	C930.518921,236.001816 929.639893,234.627014 929.643860,231.522049 
	C929.701416,186.528046 929.680481,141.533966 929.705139,96.539917 
	C929.705750,95.416862 930.011902,94.293961 930.203918,92.976669 
	C961.814758,92.976669 993.218872,92.976669 1024.886108,92.976669 
	C1024.886108,101.469261 1024.886108,109.576332 1024.886108,118.477310 
	C1002.293579,118.477310 979.918579,118.477310 957.286011,118.477310 
	C957.286011,129.543671 957.286011,139.821030 957.286011,150.705688 
	C959.017578,150.784454 960.773193,150.931610 962.528870,150.933655 
	C978.360107,150.952057 994.192627,151.051605 1010.021729,150.868591 
	C1013.857422,150.824265 1015.447876,151.773071 1015.190491,155.877441 
	C1014.857422,161.189178 1014.897827,166.548813 1015.179504,171.866516 
	C1015.386230,175.769424 1014.146484,177.080795 1010.117188,177.026154 
	C994.455444,176.813797 978.789124,176.940475 963.124512,176.940979 
	C961.320007,176.941025 959.515503,176.940979 957.364380,176.940979 
	C957.364380,187.733536 957.364380,198.122055 957.364380,209.206131 
	C978.425659,209.206131 999.358215,209.206131 1020.764404,209.206451 
z"/>
<path fill="#F0BD41" opacity="1.000000" stroke="none" 
	d="
M1260.678955,119.678345 
	C1248.176025,135.046768 1235.900024,150.141724 1223.458374,165.440369 
	C1243.043091,188.532211 1262.370972,211.321289 1282.111450,234.596817 
	C1280.299072,235.270508 1279.438110,235.863708 1278.572632,235.870346 
	C1269.077759,235.943192 1259.576782,236.087891 1250.091309,235.784027 
	C1248.332031,235.727661 1246.201904,234.118729 1244.974609,232.625153 
	C1232.813599,217.826645 1220.808350,202.900162 1208.753052,188.014755 
	C1207.713745,186.731354 1206.631592,185.482697 1205.379761,183.992386 
	C1199.132690,190.364609 1192.625732,195.891357 1193.918823,206.341492 
	C1194.913574,214.381195 1193.956665,222.647202 1194.186401,230.803574 
	C1194.293579,234.603394 1193.308716,236.256119 1189.182495,236.019104 
	C1183.536987,235.694855 1177.847534,235.718491 1172.198730,236.011993 
	C1168.103760,236.224762 1166.673584,234.912170 1166.756836,230.691437 
	C1167.000122,218.368637 1166.842041,206.037918 1166.842041,193.710312 
	C1166.842163,161.891739 1166.919189,130.072784 1166.752075,98.255081 
	C1166.729736,93.975662 1167.727661,92.205269 1172.276001,92.514610 
	C1177.582275,92.875496 1182.945923,92.835022 1188.258545,92.524025 
	C1192.694946,92.264328 1194.310303,93.524162 1194.234253,98.316887 
	C1193.943481,116.637093 1194.117065,134.964676 1194.117188,153.289505 
	C1194.117188,154.727631 1194.117188,156.165756 1194.117188,158.795578 
	C1195.883179,156.911179 1196.902710,155.945587 1197.782593,154.866089 
	C1213.567261,135.499451 1229.401489,116.172264 1245.037720,96.686455 
	C1247.487915,93.633034 1250.044434,92.382179 1253.905518,92.522346 
	C1261.059448,92.782059 1268.229614,92.573326 1275.392700,92.613922 
	C1277.154419,92.623901 1278.915039,92.842857 1282.245972,93.075287 
	C1274.578491,102.535446 1267.742188,110.970169 1260.678955,119.678345 
z"/>
<path fill="#F0BD41" opacity="1.000000" stroke="none" 
	d="
M426.323303,223.978104 
	C426.322998,235.939499 426.322998,235.939667 414.655457,235.939392 
	C410.989532,235.939316 407.308258,235.728302 403.661835,235.994583 
	C399.794189,236.277039 398.904236,234.606293 398.921936,231.019012 
	C399.046173,205.858032 399.038971,180.695908 398.928253,155.534805 
	C398.913300,152.136307 399.828522,150.708298 403.428436,150.884796 
	C408.559174,151.136337 413.711456,150.948776 419.632874,150.948776 
	C418.643494,149.124435 418.033417,147.846832 417.288635,146.653305 
	C414.467377,142.132355 412.083252,137.228760 408.660797,133.214081 
	C399.574585,122.555557 397.741974,110.258629 398.882507,96.912308 
	C399.157288,93.697296 400.027710,92.528244 403.249512,92.563408 
	C419.242798,92.737984 435.270020,92.193573 451.217834,93.095299 
	C458.670532,93.516701 466.370697,95.715050 473.259827,98.713585 
	C489.325500,105.706261 496.511871,118.654907 496.162415,136.168839 
	C495.823364,153.162674 487.854095,164.864609 472.629883,171.853134 
	C463.706482,175.949371 454.231689,177.553452 444.456116,177.556046 
	C438.655609,177.557571 432.855103,177.556320 426.323303,177.556320 
	C426.323303,193.264740 426.323303,208.373718 426.323303,223.978104 
M468.913635,137.019974 
	C469.535675,130.283279 467.650177,124.576660 461.128571,121.740471 
	C451.229004,117.435257 440.811127,119.363121 429.692444,119.195450 
	C436.317200,129.707718 442.297516,139.288223 448.424591,148.773926 
	C449.012543,149.684158 450.507965,150.503815 451.593018,150.517715 
	C459.263885,150.616028 466.349243,145.293304 468.913635,137.019974 
z"/>
<path fill="#EFBD41" opacity="1.000000" stroke="none" 
	d="
M316.434875,109.393173 
	C318.700226,103.614342 320.707031,98.146767 322.957428,92.781364 
	C323.594971,91.261414 324.943542,90.039711 325.966034,88.681229 
	C327.010223,90.006645 328.450470,91.176918 329.039581,92.680626 
	C338.745239,117.455421 348.349365,142.270020 357.964447,167.080246 
	C366.077209,188.013977 374.176697,208.952866 382.275330,229.892075 
	C382.868469,231.425583 383.407196,232.980148 384.221466,235.210297 
	C382.276794,235.493881 380.746277,235.893250 379.211517,235.910294 
	C372.717743,235.982330 366.219543,235.821625 359.729614,235.995163 
	C356.857452,236.071976 355.113983,235.298157 354.058746,232.430252 
	C352.522186,228.254257 351.611664,222.552963 348.494415,220.602890 
	C345.099762,218.479324 339.489044,219.817947 334.843628,219.790833 
	C325.351898,219.735458 315.857971,219.872681 306.368469,219.717834 
	C303.580872,219.672333 302.214478,220.617615 301.288788,223.241837 
	C299.812683,227.426193 298.962738,233.028824 295.876648,235.113647 
	C292.743103,237.230545 287.222046,235.865753 282.745239,235.927521 
	C278.013794,235.992813 273.280731,235.942184 267.412903,235.942184 
	C284.029266,193.020569 300.148987,151.381866 316.434875,109.393173 
M317.792114,195.619110 
	C325.151642,195.619110 332.511139,195.619110 340.451172,195.619110 
	C335.547577,181.042938 331.045807,167.661224 326.544037,154.279495 
	C326.139648,154.351318 325.735260,154.423126 325.330872,154.494949 
	C320.808990,167.947998 316.287079,181.401047 311.607697,195.322693 
	C313.942780,195.453705 315.408844,195.535965 317.792114,195.619110 
z"/>
<path fill="#EFBD41" opacity="1.000000" stroke="none" 
	d="
M1082.309082,114.294724 
	C1085.173462,106.965645 1087.795654,99.954933 1090.665771,93.047188 
	C1091.343384,91.416191 1092.854736,90.131523 1093.982544,88.687531 
	C1094.986206,90.080200 1096.338379,91.336998 1096.942261,92.885574 
	C1109.689087,125.574089 1122.353882,158.294586 1135.029541,191.010788 
	C1140.075684,204.034882 1145.115723,217.061325 1150.141968,230.093094 
	C1150.723877,231.601852 1151.199585,233.151596 1151.909180,235.220825 
	C1150.215454,235.514648 1148.995361,235.876053 1147.766113,235.910294 
	C1144.604858,235.998322 1141.363037,235.494888 1138.289795,236.022797 
	C1127.379028,237.897049 1120.116089,234.753555 1118.006958,222.920868 
	C1117.778564,221.639938 1115.008057,219.945908 1113.389526,219.915817 
	C1100.239990,219.671494 1087.082764,219.869888 1073.930664,219.707916 
	C1070.982788,219.671616 1069.950562,220.989777 1069.028564,223.446228 
	C1064.330444,235.963135 1064.274780,235.942276 1050.828003,235.942307 
	C1046.060303,235.942307 1041.292603,235.942291 1035.218506,235.942291 
	C1051.157471,194.755737 1066.657593,154.703232 1082.309082,114.294724 
M1100.308472,195.620575 
	C1102.719604,195.620575 1105.130737,195.620575 1108.218994,195.620575 
	C1103.345459,181.071381 1098.805908,167.519470 1094.266479,153.967545 
	C1093.923218,154.022369 1093.579956,154.077194 1093.236816,154.132019 
	C1088.683472,167.712387 1084.130127,181.292755 1079.326294,195.620560 
	C1086.758301,195.620560 1093.058594,195.620560 1100.308472,195.620575 
z"/>
<path fill="#F1BE41" opacity="1.000000" stroke="none" 
	d="
M562.999756,177.000000 
	C562.999573,195.157715 562.848572,212.817612 563.103149,230.471649 
	C563.168579,235.008133 561.670532,236.277924 557.374329,236.014771 
	C552.063599,235.689499 546.699646,235.664948 541.392822,236.020584 
	C536.951843,236.318207 535.739319,234.759354 535.759399,230.379364 
	C535.921509,194.898087 535.849976,159.415741 535.849670,123.933731 
	C535.849670,121.946449 535.849670,119.959175 535.849670,117.043823 
	C531.497009,117.043823 527.426331,117.121536 523.359680,117.024742 
	C517.910217,116.895035 512.463928,116.630249 507.016235,116.423462 
	C506.737366,110.827103 506.453247,105.230988 506.185333,99.634094 
	C506.145538,98.803154 506.264648,97.958954 506.169098,97.137299 
	C505.755127,93.576309 507.464661,92.547020 510.829651,92.558258 
	C536.483032,92.643974 562.136902,92.647179 587.790283,92.556862 
	C591.151794,92.545029 592.664307,93.533455 592.519104,97.104675 
	C592.309448,102.260185 592.315796,107.436386 592.516724,112.592575 
	C592.654907,116.137787 591.219116,117.187256 587.806213,117.103729 
	C579.826111,116.908401 571.837952,117.041321 562.999756,117.041321 
	C562.999756,137.032455 562.999756,156.766235 562.999756,177.000000 
z"/>
<path fill="#39572C" opacity="1.000000" stroke="none" 
	d="
M158.245132,181.975250 
	C151.223358,197.070236 136.282867,204.088318 121.421402,199.566605 
	C107.557472,195.348419 98.037109,180.434296 100.415215,166.659348 
	C103.589294,148.273743 120.227066,137.074539 137.825027,141.478119 
	C155.247131,145.837692 164.419937,163.734711 158.245132,181.975250 
z"/>
<path fill="#3A572C" opacity="1.000000" stroke="none" 
	d="
M739.286194,208.515320 
	C728.814636,209.181885 718.736328,209.722824 708.309204,210.282501 
	C708.309204,198.992844 708.309204,188.757721 708.309204,178.699738 
	C718.524597,178.699738 728.686157,177.847794 738.632629,178.945511 
	C748.093140,179.989609 752.495789,185.497131 752.720764,193.105423 
	C752.951050,200.890045 748.981201,205.542618 739.286194,208.515320 
z"/>
<path fill="#3A572C" opacity="1.000000" stroke="none" 
	d="
M715.112000,150.950348 
	C712.655640,150.950333 710.684753,150.950333 708.361938,150.950333 
	C708.361938,139.991226 708.361938,129.430176 708.361938,118.231339 
	C719.022644,118.392555 729.805786,116.557289 740.275330,120.288078 
	C747.358643,122.812202 750.965332,128.392654 750.643433,135.641663 
	C750.342773,142.410904 746.780945,147.553024 739.336609,148.964890 
	C731.577148,150.436539 723.522888,150.353622 715.112000,150.950348 
z"/>
<path fill="#3B582C" opacity="1.000000" stroke="none" 
	d="
M871.945190,143.756851 
	C870.040771,145.395813 868.492981,146.985489 866.635132,148.016327 
	C859.242615,152.118088 856.218201,151.289047 851.811340,144.280014 
	C847.556824,137.513199 843.281738,130.759277 839.044617,123.981567 
	C838.199646,122.629982 837.485413,121.196609 836.708008,119.795738 
	C844.877197,119.795738 852.723206,119.032196 860.361328,119.967010 
	C873.196960,121.537933 878.062378,131.876663 871.945190,143.756851 
z"/>
<path fill="#3B582C" opacity="1.000000" stroke="none" 
	d="
M468.856445,137.430695 
	C466.349243,145.293304 459.263885,150.616028 451.593018,150.517715 
	C450.507965,150.503815 449.012543,149.684158 448.424591,148.773926 
	C442.297516,139.288223 436.317200,129.707718 429.692444,119.195450 
	C440.811127,119.363121 451.229004,117.435257 461.128571,121.740471 
	C467.650177,124.576660 469.535675,130.283279 468.856445,137.430695 
z"/>
<path fill="#3E592C" opacity="1.000000" stroke="none" 
	d="
M317.333496,195.618652 
	C315.408844,195.535965 313.942780,195.453705 311.607697,195.322693 
	C316.287079,181.401047 320.808990,167.947998 325.330872,154.494949 
	C325.735260,154.423126 326.139648,154.351318 326.544037,154.279495 
	C331.045807,167.661224 335.547577,181.042938 340.451172,195.619110 
	C332.511139,195.619110 325.151642,195.619110 317.333496,195.618652 
z"/>
<path fill="#3E5A2C" opacity="1.000000" stroke="none" 
	d="
M1099.833740,195.620575 
	C1093.058594,195.620560 1086.758301,195.620560 1079.326294,195.620560 
	C1084.130127,181.292755 1088.683472,167.712387 1093.236816,154.132019 
	C1093.579956,154.077194 1093.923218,154.022369 1094.266479,153.967545 
	C1098.805908,167.519470 1103.345459,181.071381 1108.218994,195.620575 
	C1105.130737,195.620575 1102.719604,195.620575 1099.833740,195.620575 
z"/>
</svg>